# Blender v2.79 (sub 0) OBJ File: 'table_updated.blend'
# www.blender.org
mtllib lack_updated.mtl
o Body4
v 2.000000 2.000000 0.000000
v 2.000000 52.599998 0.000009
v 2.000000 2.000065 -400.000000
v 2.000000 52.600063 -400.000000
v 52.599998 2.000000 0.000000
v 52.599998 2.000065 -400.000000
v 52.599998 52.599998 0.000009
v 52.599998 52.600063 -400.000000
vt 0.000000 0.000000
vt 5.060000 0.000000
vt 0.000000 40.000000
vt 5.060000 40.000000
vt -0.000000 0.000000
vt 5.060000 0.000000
vt 0.000000 40.000000
vt 5.060000 40.000000
vt -0.000000 0.000000
vt 5.060000 0.000000
vt 0.000000 40.000000
vt 5.060000 40.000000
vt -0.000000 0.000000
vt 5.060000 0.000000
vt 0.000000 40.000000
vt 5.060000 40.000000
vt -2.530000 -2.530000
vt 2.530000 -2.530000
vt -2.530000 2.530000
vt 2.530000 2.530000
vt 2.530000 2.530000
vt -2.530000 2.530000
vt 2.530000 -2.530000
vt -2.530000 -2.530000
vn -1.0000 0.0000 0.0000
vn 0.0000 -1.0000 -0.0000
vn 1.0000 0.0000 0.0000
vn 0.0000 1.0000 0.0000
vn 0.0000 -0.0000 1.0000
vn 0.0000 0.0000 -1.0000
usemtl Powder_Coat_(White)
s 1
f 1/1/1 2/2/1 3/3/1
f 3/3/1 2/2/1 4/4/1
f 5/5/2 1/6/2 6/7/2
f 6/7/2 1/6/2 3/8/2
f 7/9/3 5/10/3 8/11/3
f 8/11/3 5/10/3 6/12/3
f 2/13/4 7/14/4 4/15/4
f 4/15/4 7/14/4 8/16/4
f 7/17/5 2/18/5 5/19/5
f 5/19/5 2/18/5 1/20/5
usemtl Bottom_Coat
f 4/21/6 8/22/6 3/23/6
f 3/23/6 8/22/6 6/24/6
o Body2
v 497.399994 52.599998 0.000009
v 548.000000 52.599998 0.000009
v 497.399994 52.600063 -400.000000
v 548.000000 52.600063 -400.000000
v 497.399994 2.000000 0.000000
v 497.399994 2.000065 -400.000000
v 548.000000 2.000000 0.000000
v 548.000000 2.000065 -400.000000
vt 0.000000 0.000000
vt 5.060000 0.000000
vt 0.000000 40.000000
vt 5.060000 40.000000
vt 0.000000 0.000000
vt 5.060000 0.000000
vt 0.000000 40.000000
vt 5.060000 40.000000
vt -0.000000 0.000000
vt 5.060000 0.000000
vt 0.000000 40.000000
vt 5.060000 40.000000
vt -0.000000 0.000000
vt 5.060000 0.000000
vt 0.000000 40.000000
vt 5.060000 40.000000
vt -2.530000 -2.530000
vt 2.530000 -2.530000
vt -2.530000 2.530000
vt 2.530000 2.530000
vt -2.530000 -2.530000
vt 2.530000 -2.530000
vt -2.530000 2.530000
vt 2.530000 2.530000
vn 0.0000 1.0000 0.0000
vn -1.0000 0.0000 0.0000
vn 0.0000 -1.0000 -0.0000
vn 1.0000 0.0000 0.0000
vn 0.0000 -0.0000 1.0000
vn 0.0000 0.0000 -1.0000
usemtl Powder_Coat_(White)
s 1
f 9/25/7 10/26/7 11/27/7
f 11/27/7 10/26/7 12/28/7
f 13/29/8 9/30/8 14/31/8
f 14/31/8 9/30/8 11/32/8
f 15/33/9 13/34/9 16/35/9
f 16/35/9 13/34/9 14/36/9
f 10/37/10 15/38/10 12/39/10
f 12/39/10 15/38/10 16/40/10
f 10/41/11 9/42/11 15/43/11
f 15/43/11 9/42/11 13/44/11
usemtl Bottom_Coat
f 16/45/12 14/46/12 12/47/12
f 12/47/12 14/46/12 11/48/12
o Body3
v 497.399994 548.000000 0.000089
v 548.000000 548.000000 0.000089
v 497.399994 548.000061 -399.999908
v 548.000000 548.000061 -399.999908
v 497.399994 497.399994 0.000081
v 497.399994 497.400055 -399.999908
v 548.000000 497.399994 0.000081
v 548.000000 497.400055 -399.999908
vt 0.000000 0.000000
vt 5.060000 0.000000
vt 0.000000 40.000000
vt 5.060000 40.000000
vt 0.000000 0.000000
vt 5.060000 0.000000
vt 0.000000 40.000000
vt 5.060000 40.000000
vt -0.000000 0.000000
vt 5.060000 0.000000
vt 0.000000 40.000000
vt 5.060000 40.000000
vt -0.000000 0.000000
vt 5.060000 0.000000
vt 0.000000 40.000000
vt 5.060000 40.000000
vt -2.530000 -2.530000
vt 2.530000 -2.530000
vt -2.530000 2.530000
vt 2.530000 2.530000
vt -2.530000 -2.530000
vt 2.530000 -2.530000
vt -2.530000 2.530000
vt 2.530000 2.530000
vn 0.0000 1.0000 0.0000
vn -1.0000 0.0000 0.0000
vn 0.0000 -1.0000 0.0000
vn 1.0000 0.0000 0.0000
vn 0.0000 -0.0000 1.0000
vn 0.0000 0.0000 -1.0000
usemtl Powder_Coat_(White)
s 1
f 17/49/13 18/50/13 19/51/13
f 19/51/13 18/50/13 20/52/13
f 21/53/14 17/54/14 22/55/14
f 22/55/14 17/54/14 19/56/14
f 23/57/15 21/58/15 24/59/15
f 24/59/15 21/58/15 22/60/15
f 18/61/16 23/62/16 20/63/16
f 20/63/16 23/62/16 24/64/16
f 18/65/17 17/66/17 23/67/17
f 23/67/17 17/66/17 21/68/17
usemtl Bottom_Coat
f 24/69/18 22/70/18 20/71/18
f 20/71/18 22/70/18 19/72/18
o Body5
v 2.000000 548.000000 0.000089
v 52.599998 548.000000 0.000089
v 2.000000 548.000061 -399.999908
v 52.599998 548.000061 -399.999908
v 2.000000 497.399994 0.000081
v 2.000000 497.400055 -399.999908
v 52.599998 497.399994 0.000081
v 52.599998 497.400055 -399.999908
vt 0.000000 0.000000
vt 5.060000 0.000000
vt 0.000000 40.000000
vt 5.060000 40.000000
vt 0.000000 0.000000
vt 5.060000 0.000000
vt 0.000000 40.000000
vt 5.060000 40.000000
vt -0.000000 0.000000
vt 5.060000 0.000000
vt 0.000000 40.000000
vt 5.060000 40.000000
vt -0.000000 0.000000
vt 5.060000 0.000000
vt 0.000000 40.000000
vt 5.060000 40.000000
vt -2.530000 -2.530000
vt 2.530000 -2.530000
vt -2.530000 2.530000
vt 2.530000 2.530000
vt -2.530000 -2.530000
vt 2.530000 -2.530000
vt -2.530000 2.530000
vt 2.530000 2.530000
vn 0.0000 1.0000 0.0000
vn -1.0000 0.0000 0.0000
vn 0.0000 -1.0000 -0.0000
vn 1.0000 0.0000 0.0000
vn 0.0000 -0.0000 1.0000
vn 0.0000 0.0000 -1.0000
usemtl Powder_Coat_(White)
s 1
f 25/73/19 26/74/19 27/75/19
f 27/75/19 26/74/19 28/76/19
f 29/77/20 25/78/20 30/79/20
f 30/79/20 25/78/20 27/80/20
f 31/81/21 29/82/21 32/83/21
f 32/83/21 29/82/21 30/84/21
f 26/85/22 31/86/22 28/87/22
f 28/87/22 31/86/22 32/88/22
f 26/89/23 25/90/23 31/91/23
f 31/91/23 25/90/23 29/92/23
usemtl Bottom_Coat
f 32/93/24 30/94/24 28/95/24
f 28/95/24 30/94/24 27/96/24
o Body1
v 550.000000 550.000000 0.000090
v 0.000000 550.000000 0.000090
v 550.000000 550.000000 50.000088
v 0.000000 550.000000 50.000088
v 550.000000 0.000000 0.000000
v 550.000000 -0.000008 50.000000
v 0.000000 0.000000 0.000000
v 0.000000 -0.000008 50.000000
vt 0.000000 0.000000
vt 55.000000 0.000000
vt 0.000000 5.000000
vt 55.000000 5.000000
vt 0.000000 0.000000
vt 55.000000 0.000000
vt 0.000000 5.000000
vt 55.000000 5.000000
vt 0.000000 0.000000
vt 55.000000 0.000000
vt 0.000000 5.000000
vt 55.000000 5.000000
vt 0.000000 0.000000
vt 55.000000 0.000000
vt 0.000000 5.000000
vt 55.000000 5.000000
vt -27.500000 -27.500000
vt 27.500000 -27.500000
vt -27.500000 27.500000
vt 27.500000 27.500000
vt 27.500000 27.500000
vt -27.500000 27.500000
vt 27.500000 -27.500000
vt -27.500000 -27.500000
vn 0.0000 1.0000 0.0000
vn 1.0000 0.0000 0.0000
vn 0.0000 -1.0000 -0.0000
vn -1.0000 0.0000 0.0000
vn 0.0000 -0.0000 1.0000
vn 0.0000 0.0000 -1.0000
usemtl Powder_Coat_(White)
s 1
f 33/97/25 34/98/25 35/99/25
f 35/99/25 34/98/25 36/100/25
f 37/101/26 33/102/26 38/103/26
f 38/103/26 33/102/26 35/104/26
f 39/105/27 37/106/27 40/107/27
f 40/107/27 37/106/27 38/108/27
f 34/109/28 39/110/28 36/111/28
f 36/111/28 39/110/28 40/112/28
f 40/113/29 38/114/29 36/115/29
f 36/115/29 38/114/29 35/116/29
usemtl Bottom_Coat
f 34/117/30 33/118/30 39/119/30
f 39/119/30 33/118/30 37/120/30
